<?xml version="1.0"?>
<svg xmlns="http://www.w3.org/2000/svg" xmlns:xlink="http://www.w3.org/1999/xlink" xmlns:svgjs="http://svgjs.com/svgjs" version="1.1" width="512" height="512" x="0" y="0" viewBox="0 0 64 64" style="enable-background:new 0 0 512 512" xml:space="preserve" class=""><g><g xmlns="http://www.w3.org/2000/svg" id="Layer_93" data-name="Layer 93"><path d="m32 3.25a28.75 28.75 0 0 0 -28.75 28.75 28.75 28.75 0 0 0 28.75 28.75 28.75 28.75 0 0 0 28.75-28.75 28.75 28.75 0 0 0 -28.75-28.75zm-13.55 33.45a4.7 4.7 0 1 1 4.7-4.7 4.71 4.71 0 0 1 -4.7 4.7zm13.55 0a4.7 4.7 0 1 1 4.7-4.7 4.71 4.71 0 0 1 -4.7 4.7zm13.55 0a4.7 4.7 0 1 1 4.7-4.7 4.71 4.71 0 0 1 -4.7 4.7z" fill="#6b6dff" data-original="#ff6b6b"/></g></g></svg>
