<?xml version="1.0"?>
<svg xmlns="http://www.w3.org/2000/svg" xmlns:xlink="http://www.w3.org/1999/xlink" xmlns:svgjs="http://svgjs.com/svgjs" version="1.1" width="512" height="512" x="0" y="0" viewBox="0 0 512 512" style="enable-background:new 0 0 512 512" xml:space="preserve" class=""><g><g xmlns="http://www.w3.org/2000/svg"><circle cx="256" cy="256" fill="#38c26a" r="256" data-original="#aada4d" class=""/><path d="m512 256c0-13.164-.997-26.095-2.913-38.724l-108.086-108.085-71.286 71.286-14.692-14.692-219.023 219.023 124.768 124.768c11.519 1.585 23.277 2.424 35.232 2.424 141.385 0 256-114.615 256-256z" fill="#38c26a" data-original="#9cc946" class=""/><path d="m256 384.808h-160v-250h160l20.294 125z" fill="#c79788" data-original="#c79788" class=""/><path d="m256 134.808h160v250h-160z" fill="#b1705b" data-original="#b1705b" class=""/><path d="m256 359.191h-145v-250h145l13.588 147.029z" fill="#ffffff" data-original="#ffffff" class=""/><path d="m256 109.191h145v250h-145z" fill="#e9edf5" data-original="#e9edf5" class=""/><g fill="#cdd2e0"><path d="m278.5 304.191h50v20h-50z" fill="#cdd2e0" data-original="#cdd2e0" class=""/><path d="m278.5 264.191h100v20h-100z" fill="#cdd2e0" data-original="#cdd2e0" class=""/><path d="m278.5 224.191h100v20h-100z" fill="#cdd2e0" data-original="#cdd2e0" class=""/><path d="m278.5 183.607h100v20h-100z" fill="#cdd2e0" data-original="#cdd2e0" class=""/><path d="m278.5 143.023h100v20h-100z" fill="#cdd2e0" data-original="#cdd2e0" class=""/></g><path d="m133.5 284.191h100v20h-100z" fill="#e9edf5" data-original="#e9edf5" class=""/><g><path d="m183.5 203.038h-50.961l10.193 61.153h40.768l6.092-31.427z" fill="#a6d4fd" data-original="#a6d4fd" class=""/><path d="m183.5 203.038v61.153h40.768l10.193-61.153z" fill="#6cb1f8" data-original="#6cb1f8" class=""/><path d="m183.5 154.94c-20.497.056-37.838 13.521-43.719 32.085-.001.001-.002.001-.003.001-6.758 3.129-11.356 10.134-10.926 18.164.519 9.709 8.498 17.509 18.215 17.823 3.143.102 6.121-.565 8.759-1.828 6.163-2.949 13.318-3.147 19.44-.114 2.484 1.231 5.278 1.93 8.234 1.95l4.939-31.492z" fill="#fcbf50" data-original="#fcbf50" class=""/><path d="m227.222 187.026-.003-.002c-5.881-18.564-23.223-32.028-43.719-32.084v68.082c2.954-.02 5.747-.718 8.23-1.948 6.124-3.032 13.281-2.838 19.444.112 2.64 1.264 5.62 1.931 8.766 1.828 9.717-.318 17.692-8.121 18.208-17.829.428-8.03-4.167-15.032-10.926-18.159z" fill="#fba033" data-original="#fba033"/></g></g></g></svg>
